<?xml version="1.0" encoding="UTF-8"?>
<svg id="Logo" xmlns="http://www.w3.org/2000/svg" xmlns:xlink="http://www.w3.org/1999/xlink" viewBox="0 0 320 610.9">
  <defs>
    <style>
      .cls-1 {
        stroke-width: 1.32px;
      }

      .cls-1, .cls-2 {
        fill: none;
        stroke: #000;
        stroke-miterlimit: 10;
      }

      .cls-2 {
        stroke-dasharray: 10.54 6.59 0 0;
        stroke-width: .66px;
      }

      .cls-3 {
        fill: url(#radial-gradient);
      }

      .cls-4 {
        font-size: 35.66px;
      }

      .cls-4, .cls-5 {
        font-family: GillSansNova, 'Gill Sans Nova';
      }

      .cls-6 {
        fill: url(#linear-gradient);
      }

      .cls-5 {
        font-size: 37.53px;
      }
    </style>
    <linearGradient id="linear-gradient" x1="108.99" y1="214.02" x2="206.25" y2="214.02" gradientUnits="userSpaceOnUse">
      <stop offset="0" stop-color="#373737"/>
      <stop offset="0" stop-color="#131313"/>
      <stop offset="0" stop-color="#fdfdfd"/>
      <stop offset=".26" stop-color="#e8e8e8"/>
      <stop offset=".29" stop-color="#eaeaea"/>
      <stop offset="1" stop-color="#000"/>
    </linearGradient>
    <radialGradient id="radial-gradient" cx="160" cy="208.64" fx="160" fy="208.64" r="87.66" gradientTransform="translate(-50.79 -66.23) scale(1.32)" gradientUnits="userSpaceOnUse">
      <stop offset=".14" stop-color="#fff"/>
      <stop offset=".21" stop-color="#f3f3f3"/>
      <stop offset=".32" stop-color="#d5d5d5"/>
      <stop offset=".48" stop-color="#a3a3a3"/>
      <stop offset=".67" stop-color="#5f5f5f"/>
      <stop offset=".88" stop-color="#090909"/>
      <stop offset=".91" stop-color="#000"/>
    </radialGradient>
  </defs>
  <g id="Text">
    <text id="BORDERS" class="cls-4" transform="translate(67.75 326.53) rotate(34.18)"><tspan x="0" y="0">B</tspan></text>
    <text class="cls-4" transform="translate(93.07 342.94) rotate(20.48)"><tspan x="0" y="0">O</tspan></text>
    <text class="cls-4" transform="translate(130.62 355.12) rotate(6.45)"><tspan x="0" y="0">R</tspan></text>
    <text class="cls-4" transform="translate(161.96 357.8) rotate(-6.78)"><tspan x="0" y="0">D</tspan></text>
    <text class="cls-4" transform="translate(197.98 351.95) rotate(-19.61)"><tspan x="0" y="0">E</tspan></text>
    <text class="cls-4" transform="translate(224.27 341.69) rotate(-31.3)"><tspan x="0" y="0">R</tspan></text>
    <text class="cls-4" transform="translate(250.11 324.62) rotate(-42.58)"><tspan x="0" y="0">S</tspan></text>
    <text class="cls-5" transform="translate(60.83 127.13) rotate(-44.46)"><tspan x="0" y="0">B</tspan></text>
    <text class="cls-5" transform="translate(80.39 109.21) rotate(-35.25)"><tspan x="0" y="0">I</tspan></text>
    <text class="cls-5" transform="translate(92.25 100.58) rotate(-25.26)"><tspan x="0" y="0">K</tspan></text>
    <text class="cls-5" transform="translate(119.19 88.73) rotate(-13.11)"><tspan x="0" y="0">E</tspan></text>
    <text class="cls-5" transform="translate(143.71 83.85) rotate(-3.93)"><tspan x="0" y="0"> </tspan></text>
    <text class="cls-5" transform="translate(159.41 82.61) rotate(6.14)"><tspan x="0" y="0">K</tspan></text>
    <text class="cls-5" transform="translate(188.96 86.92) rotate(16.16)"><tspan x="0" y="0">I</tspan></text>
    <text class="cls-5" transform="translate(202.98 90.5) rotate(27.16)"><tspan x="0" y="0">N</tspan></text>
    <text class="cls-5" transform="translate(232.65 106.49) rotate(41.81)"><tspan x="0" y="0">G</tspan></text>
  </g>
  <g id="Icon">
    <circle class="cls-1" cx="160" cy="208.64" r="159.34"/>
    <path class="cls-6" d="M131.23,259.21c.67-4.36,3.06-7.39,7.9-8.35,14.24-3.93,22.26-5.96,36.45-18.93,16.82-15.85,24.17-48.17,30.67-59.01l-2.47-4.09c-10.55,19.44-19.81,37.05-35.04,49.2-9.89,6.52-23.19,10.93-37.51,14.7-11.11,3.22-18.71,5.42-22.24,6.44,5.32,9.13,12.8,15.73,22.24,20.03Z"/>
    <path class="cls-2" d="M116.02,250.86c6.11-3.57,12.04-6.54,17.67-8.47,13.55-3.39,26-7.96,35.95-15.19,10.72-6.66,23.74-32.65,36.61-57.4"/>
    <path class="cls-3" d="M266.63,214.42l-.32-.03c.5-3.47,3.72-4.97,9.53-5.51l-.22-2.97c-5.97-.15-9.82-1.7-9.32-7.39l-.31.03c-.04-3.52,2.93-5.46,8.6-6.88l-.67-2.9c-5.93.73-9.96-.24-10.32-5.93l-.31.08c-.55-3.47,2.09-5.84,7.48-8.07l-1.09-2.77c-5.75,1.61-9.88,1.25-11.09-4.33l-.3.11c-1.06-3.34,1.19-6.09,6.19-9.09l-1.5-2.58c-5.45,2.44-9.58,2.7-11.62-2.63l-.27.16c-1.56-3.15.26-6.2,4.75-9.91l-1.85-2.32c-5.02,3.23-9.08,4.1-11.88-.88l-.25.2c-2-2.88-.66-6.16,3.22-10.5l-2.18-2.02c-4.48,3.93-8.36,5.39-11.88.89l-.22.23c-2.42-2.55-1.57-5.99,1.62-10.86l-2.47-1.67c-3.84,4.55-7.46,6.58-11.61,2.65l-.18.25c-2.77-2.16-2.45-5.69-.03-10.98l-2.69-1.3c-3.12,5.08-6.4,7.62-11.09,4.35l-.14.28c-3.06-1.72-3.27-5.27-1.66-10.85l-2.85-.87c-2.33,5.48-5.18,8.48-10.32,5.94l-.09.3c-3.29-1.26-4.03-4.72-3.27-10.49l-2.95-.44c-1.48,5.77-3.86,9.15-9.31,7.4l-.05.32c-3.44-.75-4.69-4.07-4.81-9.88h-2.98c-.6,5.92-2.45,9.62-8.1,8.71v.31c-3.52-.24-5.25-3.33-6.24-9.06l-2.95.44c.29,5.94-.98,9.88-6.71,9.81l.05.32c-3.51.29-5.68-2.51-7.51-8.03l-2.85.87c1.18,5.83.51,9.91-5.16,10.69l.09.3c-3.43.82-6-1.64-8.63-6.82l-2.69,1.29c2.03,5.6,1.98,9.72-3.51,11.34l.14.29c-3.27,1.31-6.18-.73-9.56-5.46l-2.46,1.67c2.85,5.22,3.42,9.32-1.77,11.74l.18.25c-3.04,1.79-6.22.2-10.27-3.98l-2.18,2.02c3.59,4.74,4.78,8.71,0,11.87l.22.24c-2.74,2.21-6.11,1.11-10.75-2.42l-1.86,2.32c4.27,4.16,6.03,7.9,1.79,11.74l.24.2c-2.37,2.6-5.88,2.01-10.99-.79l-1.49,2.57c4.84,3.48,7.14,6.92,3.52,11.34l.27.16c-1.96,2.92-5.52,2.87-10.98.86l-1.09,2.77c5.3,2.72,8.1,5.78,5.17,10.69l.29.11c-1.5,3.17-5.02,3.65-10.73,2.47l-.67,2.9c5.66,1.9,8.87,4.51,6.72,9.8l.31.08c-1.01,3.36-4.42,4.35-10.25,4.03l-.22,2.97c5.88,1.03,9.44,3.14,8.11,8.69l.31.03c-.49,3.47-3.72,4.97-9.53,5.52l.23,2.96c5.96.15,9.81,1.7,9.31,7.39l.32-.02c.03,3.51-2.93,5.45-8.6,6.87l.66,2.9c5.93-.73,9.96.24,10.33,5.93l.31-.08c.55,3.47-2.1,5.84-7.48,8.07l1.09,2.77c5.75-1.61,9.88-1.25,11.09,4.33l.29-.11c1.07,3.35-1.19,6.09-6.18,9.09l1.5,2.58c5.44-2.44,9.58-2.7,11.61,2.63l.28-.15c1.55,3.14-.27,6.19-4.76,9.9l1.86,2.32c5.01-3.22,9.08-4.09,11.88.88l.24-.2c2.01,2.88.67,6.16-3.22,10.51l2.19,2.02c4.48-3.93,8.35-5.4,11.87-.89l.22-.24c2.42,2.55,1.58,6-1.61,10.86l2.46,1.67c3.85-4.55,7.46-6.57,11.62-2.64l.18-.26c2.77,2.16,2.45,5.69.03,10.98l2.69,1.3c3.11-5.08,6.39-7.62,11.08-4.35l.14-.28c3.07,1.73,3.28,5.27,1.67,10.85l2.85.87c2.32-5.48,5.18-8.47,10.32-5.94l.08-.3c3.29,1.26,4.03,4.72,3.28,10.49l2.95.44c1.48-5.77,3.86-9.15,9.3-7.4l.05-.31c3.44.75,4.69,4.06,4.82,9.88h2.98c.6-5.92,2.45-9.62,8.1-8.7v-.32c3.52.24,5.25,3.33,6.24,9.06l2.94-.44c-.29-5.94.98-9.88,6.71-9.81l-.05-.32c3.51-.29,5.69,2.52,7.52,8.03l2.85-.87c-1.18-5.83-.52-9.91,5.16-10.69l-.09-.3c3.42-.82,6,1.64,8.63,6.82l2.69-1.29c-2.04-5.6-1.99-9.72,3.5-11.34l-.13-.29c3.26-1.31,6.18.73,9.56,5.47l2.46-1.68c-2.85-5.22-3.42-9.32,1.77-11.74l-.18-.25c3.04-1.79,6.22-.2,10.27,3.98l2.19-2.02c-3.6-4.74-4.78-8.71,0-11.87l-.22-.23c2.74-2.22,6.12-1.12,10.75,2.41l1.86-2.32c-4.27-4.16-6.03-7.9-1.78-11.74l-.25-.2c2.38-2.59,5.89-2.01,10.99.79l1.5-2.57c-4.84-3.48-7.15-6.92-3.52-11.34l-.28-.16c1.97-2.92,5.52-2.87,10.99-.85l1.09-2.77c-5.31-2.72-8.1-5.78-5.18-10.69l-.29-.11c1.5-3.17,5.03-3.65,10.74-2.47l.66-2.9c-5.65-1.9-8.87-4.51-6.72-9.8l-.3-.08c1.01-3.36,4.42-4.35,10.24-4.03l.23-2.97c-5.88-1.03-9.45-3.14-8.11-8.69ZM225.1,142.07c1.34-.93,2.88-.99,4.68,0,6.25,5.75,11.85,13.87,17.05,23.5-.4,2.19-1.27,3.92-4.9,3.02-6.08-3.92-13.11-5.61-20.67-6.04-1.58-.17-2.42-.83-2.55-1.94.56-3.09.19-6.12-1.28-9.06v-2.59l7.67-6.9ZM195.96,118.49c6.61,2.33,15.18,7.46,24.15,13.16,1.58,1.66,2.01,3.4,1.51,5.17l-7.98,9.27c-.6.4-1.46.71-2.71.87-3.24-1.73-6.13-1.85-9.37-1.73-1.36-.49-1.95-1.34-2.15-2.37-1.14-7.4-3.49-14.8-6.9-22.21.16-1.5,1.55-2.64,3.45-2.16ZM158.12,265.91c-31.62,0-57.26-25.64-57.26-57.26s25.64-57.27,57.26-57.27,57.27,25.64,57.27,57.27-25.64,57.26-57.27,57.26ZM208.71,248.81c4.26,0,7.71,3.45,7.71,7.71s-3.45,7.71-7.71,7.71-7.71-3.45-7.71-7.71,3.45-7.71,7.71-7.71ZM118.4,258.57c0,4.26-3.45,7.71-7.71,7.71s-7.71-3.45-7.71-7.71,3.45-7.71,7.71-7.71,7.71,3.45,7.71,7.71ZM108.99,168.64c-4.26,0-7.71-3.45-7.71-7.71s3.45-7.71,7.71-7.71,7.72,3.45,7.72,7.71-3.46,7.71-7.72,7.71ZM198.54,157.88c0-4.26,3.45-7.72,7.71-7.72s7.71,3.46,7.71,7.72-3.45,7.71-7.71,7.71-7.71-3.46-7.71-7.71ZM121.25,150.16c2.53-23.33,14.06-36.52,36.22-37.74,23.42,1.32,34.87,14.69,35.04,38.6-1.49,2.2-3.57,2.82-6.14,1.95-20.18-8.25-27.77-11.32-61.25,2.13-2.96-.36-4.13-2.26-3.87-4.94ZM93.23,137.65c5.76-6.32,13.88-11.99,23.51-17.25,2.19.39,3.91,1.28,3.02,4.96-3.93,6.16-5.62,13.27-6.04,20.93-.18,1.6-.84,2.45-1.95,2.59-3.09-.57-6.11-.2-9.06,1.29h-2.59l-6.9-7.76c-.93-1.35-.99-2.92,0-4.75ZM69.78,171.87c2.36-6.6,7.51-15.15,13.24-24.1,1.67-1.57,3.4-2,5.18-1.5l9.25,8.01c.39.61.7,1.47.86,2.72-1.74,3.24-1.88,6.12-1.76,9.36-.5,1.36-1.35,1.95-2.39,2.14-7.41,1.11-14.81,3.43-22.22,6.83-1.5-.17-2.63-1.57-2.15-3.46ZM62,209.07c3.47-25.36,17.61-33.42,36.52-33.74,3.28-.03,5.04,1.25,5.09,4.03-10.06,20.98-8.53,41.45,1.82,61.54,1.25,2.39.27,4.33-1.82,6.04-30.01-.96-42.11-14.85-41.61-37.86ZM87.45,273.21c-6.24-5.75-11.85-13.87-17.04-23.5.39-2.19,1.27-3.92,4.9-3.02,6.08,3.93,13.11,5.62,20.66,6.04,1.59.18,2.43.83,2.56,1.94-.56,3.1-.19,6.12,1.28,9.06v2.6l-7.67,6.89c-1.34.93-2.89.99-4.69,0ZM120.68,298.65c-6.61-2.33-15.17-7.45-24.15-13.15-1.58-1.66-2.01-3.4-1.5-5.18l7.98-9.27c.61-.39,1.46-.71,2.71-.86,3.24,1.72,6.13,1.85,9.37,1.72,1.37.5,1.95,1.34,2.15,2.37,1.14,7.41,3.49,14.81,6.9,22.21-.16,1.5-1.55,2.63-3.45,2.15ZM196.13,267.48c-2.53,23.33-14.07,36.52-36.22,37.74-23.43-1.32-34.88-14.69-35.04-38.6,1.49-2.2,3.57-2.82,6.13-1.95,20.19,8.25,27.78,11.32,61.25-2.13,2.97.36,4.14,2.26,3.88,4.94ZM224.06,281.97c-5.93,6.16-14.2,11.61-23.98,16.59-2.17-.45-3.88-1.38-2.88-5.04,4.1-6.05,5.99-13.1,6.61-20.74.23-1.6.9-2.44,2.01-2.54,3.08.66,6.11.37,9.09-1.04l2.59.08,6.68,7.95c.89,1.37.91,2.94-.12,4.75ZM249.22,247.37c-2.34,6.61-7.47,15.18-13.17,24.14-1.67,1.58-3.4,2.01-5.18,1.51l-9.26-7.98c-.4-.61-.71-1.47-.87-2.72,1.73-3.24,1.86-6.12,1.73-9.36.5-1.37,1.35-1.95,2.38-2.16,7.4-1.13,14.81-3.47,22.21-6.88,1.5.17,2.64,1.56,2.16,3.45ZM255.56,208.65c-3.47,25.36-17.61,33.42-36.52,33.74-3.27.03-5.04-1.25-5.08-4.03,10.05-20.98,8.53-41.45-1.82-61.54-1.25-2.39-.27-4.33,1.82-6.04,30,.96,42.1,14.85,41.6,37.86Z"/>
  </g>
</svg>