<?xml version="1.0" encoding="UTF-8"?>
<svg xmlns="http://www.w3.org/2000/svg" viewBox="0 0 2573 1448">
  <defs>
    <style>
      .cls-1 {
        fill: #ff662a;
      }

      .cls-2 {
        fill: #fcfcfc;
      }

      .cls-3, .cls-4 {
        stroke-width: .63px;
      }

      .cls-3, .cls-4, .cls-5 {
        stroke-miterlimit: 10;
      }

      .cls-3, .cls-6 {
        fill: #ff662a;
      }

      .cls-3, .cls-5 {
        stroke: #ff662a;
      }

      .cls-7, .cls-5 {
        fill: none;
      }

      .cls-8 {
        isolation: isolate;
      }

      .cls-4 {
        stroke: #00940c;
      }

      .cls-4, .cls-9 {
        fill: #00940c;
      }

      .cls-10 {
        font-family: CopperplateGothic-Bold, 'Copperplate Gothic Bold';
        font-size: 30.77px;
        font-weight: 700;
      }

      .cls-5 {
        mix-blend-mode: multiply;
        stroke-width: 4.12px;
      }
    </style>
  </defs>
  <g class="cls-8">
    <g id="Logo">
      <text id="Text" class="cls-10" transform="translate(1161.45 739.92) rotate(6.12) scale(.98 1)"><tspan x="0" y="0">B</tspan></text>
      <text class="cls-10" transform="translate(1184.82 742.91) rotate(14.83) scale(.98 1)"><tspan x="0" y="0">I</tspan></text>
      <text class="cls-10" transform="translate(1193.84 744.68) rotate(23.5) scale(.98 1)"><tspan x="0" y="0">K</tspan></text>
      <text class="cls-10" transform="translate(1215.14 753.91) rotate(35.34) scale(.98 1)"><tspan x="0" y="0">E</tspan></text>
      <text class="cls-10" transform="translate(1233.03 767.17) rotate(42.9) scale(.98 1)"><tspan x="0" y="0"> </tspan></text>
      <text class="cls-10" transform="translate(1238.49 771.41) rotate(50.68) scale(.98 1)"><tspan x="0" y="0">K</tspan></text>
      <text class="cls-10" transform="translate(1252.99 789.85) rotate(59.01) scale(.98 1)"><tspan x="0" y="0">I</tspan></text>
      <text class="cls-10" transform="translate(1258.3 797.36) rotate(67.85) scale(.98 1)"><tspan x="0" y="0">N</tspan></text>
      <text class="cls-10" transform="translate(1267.89 820.64) rotate(80.5) scale(.98 1)"><tspan x="0" y="0">G</tspan></text>
      <text class="cls-10" transform="translate(1271.45 845.54) rotate(88.51) scale(.98 1)"><tspan x="0" y="0"> </tspan></text>
      <text class="cls-10" transform="translate(1272.23 852.45) rotate(96.09) scale(.98 1)"><tspan x="0" y="0">B</tspan></text>
      <text class="cls-10" transform="translate(1269.94 875.74) rotate(108.28) scale(.98 1)"><tspan x="0" y="0">O</tspan></text>
      <text class="cls-10" transform="translate(1262.18 899.32) rotate(120.55) scale(.98 1)"><tspan x="0" y="0">R</tspan></text>
      <text class="cls-10" transform="translate(1250.41 919.57) rotate(132.71) scale(.98 1)"><tspan x="0" y="0">D</tspan></text>
      <text class="cls-10" transform="translate(1233.91 937.43) rotate(144.62) scale(.98 1)"><tspan x="0" y="0">E</tspan></text>
      <text class="cls-10" transform="translate(1216.12 950.29) rotate(156.51) scale(.98 1)"><tspan x="0" y="0">R</tspan></text>
      <text class="cls-10" transform="translate(1194.61 959.6) rotate(168.27) scale(.98 1)"><tspan x="0" y="0">S</tspan></text>
      <path class="cls-9" d="M1054.04,965.4l7.63,5.22h0s138.03-50.37,138.03-50.37l-151.69,36.95c2.33,2.59,4.74,5.09,7.23,7.51l-1.21.69Z"/>
      <path class="cls-9" d="M1205.03,797.89l-57.5-57.83-20.04,31.49-12.45-12.79-25.53,20.98-5.6,4.6,5.97-3.2,24.45-13.1,16.93,19.78,22.56-33.2c14.68,14.28,29.04,30.95,43.02,50.37,35.7,56.82,11.15,89.55-47.07,105.42h0c-5.41,1.48-11.1,2.8-17.07,3.99,0,0,0,0-.01,0-.47.1-.95.19-1.42.28l-70.88,19.82h0l-26.01,7.27-10.25,2.87c3.08.84,6.32,1.29,9.67,1.29,1.15,0,2.3-.05,3.42-.16,3.25,4.42,6.72,8.67,10.41,12.71,2.13,2.34,4.33,4.6,6.6,6.8l-.55.31,7.63,5.22h0s137.34-50.12,137.34-50.12l.43-.12c58.67-24.56,57.24-65.61,5.96-122.68Z"/>
      <path class="cls-1" d="M1062.44,901.79h0s-3.84,2.14-3.84,2.14l-10.01,5.56-.4.22c-.83,4.03-3.15,3.72-5.96,1.99-2.74,7.75-6.74,10-12.17,5.91-3.8-6.68-.35-12.03,5.96-16.86,2.65-2.67,5.66-5.35,9.02-8.03,2.14-1.7,4.43-3.41,6.86-5.11.11-.08.22-.16.34-.24,2.52-1.76,5.19-3.52,8.01-5.28l.02.21.4,3.59h0s0,0,0,0l1.77,15.89s0,0,0,0Z"/>
      <polygon class="cls-9" points="1109.29 845.04 1127.18 879.37 1129.66 874.14 1111.7 842.46 1109.29 845.04"/>
      <path class="cls-3" d="M1135.62,843.8c-5.34,0-10.4,1.18-14.95,3.29-1.33.62-2.62,1.32-3.85,2.09-.32.2-.64.41-.96.62-1.02.68-2,1.42-2.94,2.2-7.17,5.98-11.96,14.73-12.72,24.61-.07.91-.1,1.82-.1,2.75,0,2.75.31,5.42.9,7.99,3.57,15.58,17.36,27.25,33.92,27.57,0,0,0,0,.01,0,.23,0,.46,0,.69,0,5.91,0,11.47-1.44,16.37-4h0c11.38-5.93,19.14-17.84,19.14-31.57,0-19.64-15.9-35.57-35.52-35.57ZM1135.62,905.73c-14.54,0-26.33-11.81-26.33-26.37,0-7.43,3.07-14.15,8.02-18.94.97-.94,2.01-1.81,3.11-2.59.21-.15.42-.29.63-.43,1.14-.76,2.34-1.43,3.59-2.01,3.34-1.54,7.06-2.4,10.98-2.4,14.54,0,26.33,11.81,26.33,26.37s-11.79,26.37-26.33,26.37Z"/>
      <path class="cls-7" d="M1057.13,966.48c-2.51-2.4-4.93-4.89-7.28-7.47"/>
      <path class="cls-4" d="M1132.89,872.69l-8.25-17.29-3.96-8.31-4.66-9.76-4.24,1.24-7.7-10.94,3.23-4.23,7.7,4.48c1.03-.69,1.26-1.78.74-3.24-.54-1.5-1.88-3.4-3.98-5.67h-20.24l-.55,5.71s0,0,0,0l2.67-2.02,4.97,5.97-8.82,10.38-10.89,12.82-10.09,11.87-11.24-16.94-1.13,8.14s0,0,0,0l13.62,24.46c-2.56-.86-6.05.86-9.65,2.87-.04.02-.09.05-.13.07-.46.26-.93.52-1.39.79l1.79,2.8h0s0,0,0,0l11.62,18.11h0s1.74,2.72,1.74,2.72c6.01,3.19,8.34,1.03,7.7-5.47,1.47-2.44,17.41-19.2,19.34-13.14l-.06-.76-.79-10.73h0l-5.57-1.98,10.18-34.33,4.47,4.73,2.4-2.58,1.07-1.15,4.05,7.88,4.23,8.22,8.61,16.74c-1.49,1.68-2.29,3.43-2.48,5.22-.22,2.02.32,4.1,1.49,6.22,5.88,3.39,10.93,3.67,14.66-.99,4.11-9.54-2.82-15.43-10.43-11.9ZM1091.45,853.25h0s-11.96,28.85-11.96,28.85c-6.14-3.09-9.01-7.88-8.45-14.42l8.94-11.18,10.29-11.15,8.09-8.76-6.91,16.67Z"/>
      <path class="cls-9" d="M1122.46,818.43v9.2l-6.71-2.99h0s-3.98-5.68-3.98-5.68l-2.47-3.52c-15-5.73-24.18-14.6-27.57-26.61l-11.18,10.45c1.98,6.4,7.17,12.06,17.88,16.42,1.5.96,2.55,2.05,3.1,3.27.74,1.64.6,3.54-.55,5.71,0,0,0,0,0,0-.16.31-.35.63-.56.96l-3.97-2.74c3.17,3.53,3.62,9.49,3.35,16.1-.03.76-.07,1.53-.12,2.3l.6,4.04,1.18,7.91h0s3.19,21.39,3.19,21.39l-15.15,7.46c2.18-7.98,2.3-16.53.5-25.61-.31-1.54-.67-3.1-1.09-4.67-.05-.19-.1-.38-.15-.57l-1.49-16.91c-8.14.59-15.87-1.23-22.6-8.95,2.43,6.94,3.41,14.06,2.92,21.37-.18,2.69-.56,5.4-1.13,8.14,0,0,0,0,0,0-.09.44-.19.88-.29,1.33l-2.48,14.18-.85,6.61-1.27,9.86c.12.24.24.49.36.73,2.6,5.24,4.77,10.71,6.7,16.32.49,1.41.96,2.83,1.42,4.25.92,2.87,1.8,5.77,2.64,8.69-6.43,1.97-11,0-13.72-5.92-.12-.49-.23-.98-.34-1.47-1.39-5.95-2.58-11.56-3.55-16.76-.63-3.38-1.17-6.6-1.6-9.62-.5-3.46-.85-6.67-1.05-9.6-.19-2.78-.25-5.31-.15-7.57,2.04-5.38,3.23-11.36,2.73-18.41-1.53.98-3.35.59-5.47-1.24l-5.71-14.43c-7.17-2.16-10.57-10.55-7.95-28.86-5.74-3.82-4.96-10.26,7.45-21.39,11.46-9.65,22.37-17.66,30.3-17.16,4.28-2.02,8.56-3.14,12.67-3.98l-2.48-4.97c-.55-4.56.84-8.75,6.21-12.19,3.39-.6,8.59-.51,14.16,1.99,3.33,2.85,5.83,6.3,7.7,10.2-.5,3.33-2.39,3.51-4.72,2.74,1.29,2.03,1.03,4.15-1.99,6.47l.74,2.49-3.48,1.49-2.98,5.47c.95,2.13,1.77,4.2,2.33,6.13.14.48.26.95.37,1.41.38,1.7.51,3.27.29,4.65,3.53,12.66,14.64,23.03,30.06,32.09Z"/>
      <path class="cls-5" d="M1031.5,938.31c1.11,1.76,2.25,3.49,3.43,5.2.93,1.37,1.89,2.72,2.87,4.05,3.29,4.48,6.81,8.78,10.55,12.88,2.37,2.61,4.83,5.13,7.37,7.57,2.13,2.05,4.31,4.03,6.55,5.94h0c26.95,23.09,61.72,37,99.68,37,85.6,0,154.98-70.72,154.98-157.95s-69.39-157.95-154.98-157.95-154.98,70.72-154.98,157.95c0,10.11.93,20,2.71,29.58h0c.69,3.69,1.5,7.34,2.43,10.93"/>
      <path class="cls-7" d="M1039.06,946.09c6.67,9.43,14.39,17.74,22.85,25.25l-8.69-5.4-16.37-20.15,2.21.3Z"/>
      <path class="cls-7" d="M1062.41,881.15c-3.07,1.15-7.14,3.76-11.5,6.8"/>
      <path class="cls-2" d="M1062.65,916.87l-7.05,3.37-6.71-7.46c6.5,3.64,9.9.93,11.92-4.6l1.83,8.69Z"/>
      <path class="cls-3" d="M1072.28,904.01h0c-1.34-8.62-5.67-16.24-11.89-21.78-.05-.04-.1-.09-.15-.14-2.25-1.98-4.75-3.69-7.44-5.08-3.22-1.67-6.73-2.87-10.42-3.51-2.07-.36-4.19-.55-6.36-.55-9.33,0-17.85,3.48-24.32,9.23h0c-7.59,6.73-12.38,16.57-12.38,27.53,0,16.95,11.45,31.21,27.03,35.46h0c3.08.84,6.32,1.29,9.67,1.29,1.15,0,2.3-.05,3.42-.16,9.09-.84,17.22-5,23.17-11.27h0c6.26-6.59,10.1-15.51,10.1-25.32,0-1.94-.15-3.84-.44-5.7ZM1062.65,916.87c-3.15,11.78-13.88,20.45-26.63,20.45-.94,0-1.88-.05-2.79-.14-13.91-1.4-24.78-13.16-24.78-27.47,0-6.3,2.1-12.1,5.65-16.74,5.03-6.61,12.98-10.87,21.92-10.87,2.57,0,5.06.35,7.42,1.01,2.92.81,5.65,2.1,8.09,3.77.24.16.47.32.7.49,4.82,3.51,8.46,8.55,10.21,14.41t0,0h0s0,0,0,0c.75,2.51,1.15,5.16,1.15,7.91,0,2.48-.32,4.88-.94,7.16Z"/>
      <polygon class="cls-9" points="1050.57 887.95 1061.19 902.49 1072.43 897.4 1061.83 881.15 1050.57 887.95"/>
      <path class="cls-6" d="M1039.21,946.46c6.7,9,14.42,17.14,22.3,24.52l-8.47-5.04-16.18-20.15,2.35.67Z"/>
      <path class="cls-6" d="M1100.1,875.06c-.49,5.79.11,10.92,1.48,15.58l.68-12.25-2.17-3.33Z"/>
    </g>
  </g>
</svg>